<svg xmlns="http://www.w3.org/2000/svg" width="475.704" height="121.789" preserveAspectRatio="xMidYMid" viewBox="0 0 356.778 91.342"><path d="M313 2363c-64-4-75-11-48-33 13-11 15-59 15-321 0-274-2-309-16-317-25-14-7-20 91-32 240-30 397 74 398 264 0 80-24 137-80 185-49 44-116 64-176 54-30-5-42-14-69-57l-33-51-3 158c-1 86-6 156-10 155s-35-3-69-5m267-313c58-41 77-149 39-226-25-52-83-84-151-84-81 0-78-6-78 160v148l38 16c46 20 113 14 152-14" style="fill:#332c29;fill-opacity:1" transform="matrix(.1 0 0 -.1 -25.122 236.801)"/><path d="M1816 2352c-16-4-16-5 1-24 16-18 18-45 21-287 4-289 1-322-29-352-19-19-18-19 83-19h101l-21 23c-22 23-22 28-20 303l3 279 50 3c86 6 135-35 135-113 0-49-47-99-113-121-29-9-54-18-55-20-2-1 21-40 51-86 65-99 183-238 217-255 14-7 57-13 95-13l70 1-30 22c-63 46-111 95-193 197-74 92-82 106-67 115 100 59 135 106 135 181 0 61-27 107-80 138-30 18-57 22-186 26-83 3-159 3-168 2" style="fill:#bb333d;fill-opacity:1" transform="matrix(.1 0 0 -.1 -25.122 236.801)"/><path d="M890 2320c-45-45-9-114 58-108 83 7 75 128-9 128-16 0-38-9-49-20m2159-1c-24-24-20-75 8-96s80-16 97 9c50 71-44 148-105 87M970 2159c-8-5-36-9-62-9-52 0-56-3-33-26 12-13 15-51 15-214s-3-201-15-214c-8-8-15-17-15-20s39-6 86-6h85l-15 22c-13 19-16 60-16 245 0 122-4 224-8 227-4 2-14 1-22-5m375-4c-27-8-53-14-56-15-3 0-27-19-53-41-83-73-111-162-82-260 67-231 411-246 507-23 38 90 20 188-48 264-67 75-169 104-268 75m118-79c48-19 84-68 98-131 21-95-15-169-96-201-38-14-52-15-84-5-141 42-167 266-39 330 50 25 76 26 121 7m1667 83c-8-5-37-9-64-9h-49l19-21c17-19 19-38 19-219s-2-200-19-219l-19-21h186l-21 23c-21 22-22 31-22 245 0 121-4 223-8 226-4 2-14 1-22-5m176-6-69-4 34-23c29-20 48-54 118-207 83-184 111-228 164-255l28-15 51 108c28 59 81 172 119 251l68 142h-82c-66-1-79-3-66-13 33-26 29-46-38-192-37-80-71-144-76-142-8 2-131 267-150 325-5 17-15 31-21 30s-42-4-80-5m-904-35c-19-19-14-25 28-32 46-7 66-36 123-176 53-130 53-119-4-191-106-130-160-240-129-259 8-5 17-7 21-4 4 2 34 50 67 106 33 57 73 118 89 137l29 34 43-104c23-56 51-116 62-131 25-34 82-51 135-40 49 10 53 36 6 40-25 3-38 11-52 35-22 35-110 251-110 268 0 6 28 48 62 92 67 89 123 199 114 222-12 32-35 12-80-67-52-93-112-178-125-178-4 0-27 44-50 98-44 102-63 132-98 151-28 15-116 14-131-1" style="fill:#332c29;fill-opacity:1" transform="matrix(.1 0 0 -.1 -25.122 236.801)"/></svg>