<svg xmlns="http://www.w3.org/2000/svg" width="130" height="130"><circle cx="65" cy="65" r="64" style="fill:#fcb425"/><path d="M49.82 84.56H37.964v-4.827c-1.204 1.511-4.036 3.052-5.265 3.743-2.151 1.204-5.072 1.987-7.812 1.987-4.43 0-8.374-1.4-11.831-4.447-4.123-3.636-6.06-9.195-6.06-15.188q0-9.142 6.338-14.597c3.354-2.893 7.457-5.21 11.81-5.21 2.535 0 5.662.228 7.89 1.304 1.28.614 3.573 2.06 4.93 3.469v-25.42h11.854zM37.7 65.866c0-2.254-.619-4.952-2.207-6.514-1.587-1.588-4.474-2.996-6.727-2.996-2.51 0-4.835 1.825-6.448 3.72-1.306 1.537-1.96 3.906-1.96 5.877 0 1.972.742 4.165 2.048 5.702 1.587 1.895 3.298 3.194 5.833 3.194 2.279 0 4.99-.957 6.552-2.52 1.588-1.561 2.908-4.184 2.908-6.463" style="fill:#231f20"/><path d="M105.428 25.618q-2.959 0-5.032 2.074-2.037 2.036-2.036 4.994t2.036 5.032q2.074 2.074 5.032 2.074 2.995 0 5.032-2.036 2.074-2.075 2.074-5.07 0-2.958-2.074-4.994-2.074-2.074-5.032-2.074m-31.209 19.89q-10.985 0-16.94 6.849-4.916 5.673-4.916 13.008 0 8.145 4.878 13.739 5.916 6.807 16.594 6.808 10.64 0 16.556-6.808Q95.27 73.51 95.27 65.69q0-7.74-4.916-13.333-6.03-6.85-16.134-6.85m24.909 1.387v37.634h12.6V46.895zM73.835 56.976q3.458 0 5.877 2.554 2.46 2.512 2.459 6.16 0 3.687-2.42 6.24-2.42 2.513-5.916 2.514-3.918 0-6.376-3.08-1.998-2.473-1.998-5.674 0-3.16 1.998-5.633 2.458-3.081 6.376-3.081" style="fill:#fff"/></svg>