<svg xmlns="http://www.w3.org/2000/svg" xml:space="preserve" id="svg27" width="1560.556" height="534.1" x="0" y="0" viewBox="0 0 1560.556 534.1"><style id="style1" type="text/css">.st2{fill:#ff4600}.st3{fill:#00005f}</style><g id="Contenu" transform="translate(-270.5 -273)"><g id="g27"><g id="g18"><g id="g16"><g id="g15"><g id="g14"><path id="path1" d="M1000.8 676.5q-7.2 0-12.9-2.1c-3.8-1.4-6.9-3.5-9.2-6.3s-3.5-6.1-3.6-10h10c.1 1.9.9 3.7 2.4 5.1 1.5 1.5 3.5 2.6 5.9 3.4 2.5.8 5.1 1.2 8 1.2 2.7 0 5-.4 7-1.2q3-1.2 4.5-3.3c1-1.4 1.6-3.1 1.6-5 0-1.7-.4-3.1-1.2-4.1s-2.3-2-4.6-2.8c-2.3-.9-5.9-2-11-3.4-5.4-1.4-9.5-2.8-12.5-4.3s-5.1-3.2-6.4-5.2-1.9-4.4-1.9-7.3c0-3.4 1-6.5 2.9-9.1s4.6-4.7 8-6.1 7.4-2.2 11.9-2.2q6.9 0 12.3 2.1c3.6 1.4 6.5 3.5 8.7 6.2s3.4 5.9 3.6 9.7h-10c-.1-2-.9-3.6-2.1-5-1.3-1.4-3-2.4-5.1-3.1s-4.6-1.1-7.4-1.2c-2.5-.1-4.8.2-6.7.9-2 .7-3.5 1.6-4.6 2.9s-1.7 2.7-1.7 4.4c0 1.5.5 2.8 1.4 3.7.9 1 2.5 1.9 4.9 2.8 2.3.9 5.9 2 10.7 3.2 5.3 1.4 9.5 2.8 12.4 4.3s5.1 3.4 6.4 5.4c1.3 2.1 2 4.7 2 7.8 0 3.8-.9 7.1-2.8 9.8-1.9 2.8-4.6 4.9-8.2 6.4-3.6 1.7-7.8 2.4-12.7 2.4" class="st2"/><path id="path2" d="M1063.9 676.6c-5.9 0-10.9-1.3-15.2-4s-7.5-6.4-9.7-11.1-3.4-10.2-3.4-16.3c0-6.2 1.2-11.7 3.5-16.4s5.5-8.4 9.8-11 9.3-3.9 15.2-3.9q6.15 0 11.4 2.1c3.4 1.4 6.4 3.4 8.8 6s4.1 5.7 5.1 9.2l-9.7 2.9c-1.3-3.4-3.3-6.1-6.1-8s-6-2.9-9.6-2.9c-5.9 0-10.3 2-13.3 6s-4.5 9.4-4.6 16.1q0 6.75 2.1 11.7c1.4 3.3 3.4 5.9 6.1 7.7s5.9 2.7 9.8 2.7c3.8 0 7-.9 9.6-2.6 2.6-1.8 4.6-4.3 5.9-7.8l9.9 2.6c-2.1 5.5-5.3 9.8-9.6 12.7-4.5 2.8-9.8 4.3-16 4.3" class="st2"/><path id="path3" d="M1103.9 605v-10.1h9.8V605Zm0 69.9v-59.4h9.8v59.4z" class="st2"/><path id="path4" d="M1158.2 676.6q-8.7 0-15.3-3.9c-4.4-2.6-7.8-6.2-10.2-10.9q-3.6-7.05-3.6-16.2c0-6.4 1.2-12 3.5-16.8s5.7-8.5 10-11.1q6.45-3.9 15-3.9c5.9 0 11 1.4 15.2 4.1 4.2 2.8 7.4 6.7 9.5 11.8s3 11.2 2.7 18.2h-9.9v-3.5c-.1-4.9-.8-8.9-2.1-12.1q-1.95-4.8-5.7-7.2c-2.5-1.6-5.7-2.4-9.4-2.4-4 0-7.4.9-10.2 2.6s-4.9 4.3-6.3 7.6-2.1 7.5-2.1 12.3c0 4.7.7 8.6 2.1 11.9s3.5 5.8 6.2 7.5 6 2.6 9.9 2.6c2.8 0 5.2-.3 7.3-.9s4.1-1.6 5.7-3c1.7-1.4 3.1-3.3 4.2-5.6h9.4c-1 4-2.8 7.4-5.3 10.2s-5.6 5-9.2 6.4c-3.3 1.6-7.2 2.3-11.4 2.3m-22-28.6v-7.9h43.9v7.9z" class="st2"/><path id="path5" d="m1199.6 674.9.1-31.3h9.8v16.7l.1 2-.1 12.7h-9.9zm42.3-29.7c0-4.3-.5-8-1.4-11.2s-2.5-5.7-4.9-7.7c-2.3-2-5.5-3-9.5-3-3.4 0-6.3.8-8.8 2.3s-4.4 3.8-5.8 6.8-2.1 6.8-2.1 11.3h-9.8c0-6.9 1.3-12.5 3.8-17s5.8-7.7 9.9-9.8 8.6-3 13.4-2.9 9.1 1.3 12.9 3.5q5.7 3.3 9 9.6c2.2 4.2 3.2 9.2 3.2 15V675h-9.9z" class="st2"/><path id="path6" d="M1293.4 676.6c-5.9 0-10.9-1.3-15.2-4s-7.5-6.4-9.7-11.1-3.4-10.2-3.4-16.3c0-6.2 1.2-11.7 3.5-16.4s5.5-8.4 9.8-11 9.3-3.9 15.2-3.9q6.15 0 11.4 2.1c3.4 1.4 6.4 3.4 8.8 6s4.1 5.7 5.1 9.2l-9.7 2.9c-1.3-3.4-3.3-6.1-6.1-8s-6-2.9-9.6-2.9c-5.9 0-10.3 2-13.3 6s-4.5 9.4-4.6 16.1q0 6.75 2.1 11.7c1.4 3.3 3.4 5.9 6.1 7.7s5.9 2.7 9.8 2.7c3.8 0 7-.9 9.6-2.6 2.6-1.8 4.6-4.3 5.9-7.8l9.9 2.6c-2.1 5.5-5.3 9.8-9.6 12.7-4.6 2.8-9.8 4.3-16 4.3" class="st2"/><path id="path7" d="M1358 676.6q-8.7 0-15.3-3.9c-4.4-2.6-7.8-6.2-10.2-10.9q-3.6-7.05-3.6-16.2c0-6.4 1.2-12 3.5-16.8s5.7-8.5 10-11.1q6.45-3.9 15-3.9c5.9 0 11 1.4 15.2 4.1 4.2 2.8 7.4 6.7 9.5 11.8s3 11.2 2.7 18.2h-9.9v-3.5c-.1-4.9-.8-8.9-2.1-12.1q-1.95-4.8-5.7-7.2c-2.5-1.6-5.7-2.4-9.4-2.4-4 0-7.4.9-10.2 2.6s-4.9 4.3-6.3 7.6-2.1 7.5-2.1 12.3c0 4.7.7 8.6 2.1 11.9s3.5 5.8 6.2 7.5 6 2.6 9.9 2.6c2.8 0 5.2-.3 7.3-.9s4.1-1.6 5.7-3c1.7-1.4 3.1-3.3 4.2-5.6h9.4c-1 4-2.8 7.4-5.3 10.2s-5.6 5-9.2 6.4c-3.2 1.6-7.1 2.3-11.4 2.3m-21.9-28.6v-7.9h43.9v7.9z" class="st2"/><path id="path8" d="M1449 676.6c-5.8 0-10.9-1.3-15.2-4q-6.45-4.05-9.9-11.1c-2.3-4.8-3.5-10.2-3.5-16.3 0-6.2 1.2-11.6 3.5-16.3s5.7-8.4 10-11 9.4-3.9 15.1-3.9c5.9 0 11 1.3 15.3 4q6.45 3.9 9.9 11.1c2.3 4.7 3.5 10.2 3.5 16.3 0 6.2-1.2 11.7-3.5 16.4s-5.7 8.4-10 11.1c-4.3 2.4-9.4 3.7-15.2 3.7m0-9.3c4 0 7.4-.9 10.1-2.8 2.7-1.8 4.8-4.4 6.1-7.8 1.4-3.3 2-7.2 2-11.6 0-6.8-1.6-12.2-4.7-16.1s-7.6-5.9-13.6-5.9c-4 0-7.4.9-10.1 2.8-2.7 1.8-4.7 4.4-6.1 7.7-1.3 3.3-2 7.2-2 11.6q0 6.75 2.1 11.7c1.4 3.3 3.4 5.9 6.2 7.7s6.1 2.7 10 2.7" class="st2"/><path id="path9" d="M1517.1 677.1c-5.8 0-10.7-1.2-14.6-3.6s-6.8-5.8-8.7-10-2.8-9.3-2.8-15.1v-32.9h9.9v31.1c0 5 .8 9.1 2.3 12.2s3.5 5.4 5.9 6.8q3.6 2.1 8.1 2.1c3 0 5.7-.6 8.1-1.9s4.4-3.4 5.9-6.5c1.5-3 2.3-7.1 2.3-12.1l9.8-.1c0 7.4-1.1 13.4-3.3 17.8s-5.2 7.5-9 9.4-8.6 2.8-13.9 2.8m16.2-29.8v-31.7h9.9l-.1 31.7z" class="st2"/><path id="path10" d="m1576.8 674.9-21.6-59.4h9.9l16.7 46.9 16.6-46.9h10l-21.6 59.4z" class="st2"/><path id="path11" d="M1646.2 676.6q-8.7 0-15.3-3.9c-4.4-2.6-7.8-6.2-10.2-10.9q-3.6-7.05-3.6-16.2c0-6.4 1.2-12 3.5-16.8s5.7-8.5 10-11.1q6.45-3.9 15-3.9c5.9 0 11 1.4 15.2 4.1s7.4 6.7 9.5 11.8 3 11.2 2.7 18.2h-9.9v-3.5c-.1-4.9-.8-8.9-2.1-12.1q-1.95-4.8-5.7-7.2c-2.5-1.6-5.7-2.4-9.4-2.4-4 0-7.4.9-10.2 2.6s-4.9 4.3-6.3 7.6q-2.1 5.1-2.1 12.3c0 4.7.7 8.6 2.1 11.9s3.5 5.8 6.2 7.5 6 2.6 9.9 2.6c2.8 0 5.2-.3 7.3-.9s4.1-1.6 5.7-3c1.7-1.4 3.1-3.3 4.2-5.6h9.4c-1 4-2.8 7.4-5.3 10.2s-5.6 5-9.2 6.4c-3.3 1.6-7.2 2.3-11.4 2.3m-21.9-28.6v-7.9h43.9v7.9z" class="st2"/><path id="path12" d="M1687.7 674.9v-39.2l8.7-9.4v3.5l-8.7 5.8c0-2.6.7-5.2 2.2-7.9s3.6-5.2 6.5-7.8c1.8-1.6 4-2.8 6.7-3.6s5.5-1.3 8.2-1.4 5.1 0 7 .4v9.2c-2.3-.6-4.8-.8-7.3-.5s-4.8 1.1-6.7 2.4c-1.7 1.1-3 2.4-4 3.8s-1.7 3-2.1 4.6-.7 3.4-.7 5.4v34.6h-9.8z" class="st2"/><path id="path13" d="M1724.4 623.6v-8.1h39.8v8.1zm39.7 51.3c-5.8 1.2-11.1 1.2-15.8.2-4.7-1.1-8-3.5-9.9-7.3-1-1.9-1.5-3.8-1.8-5.7-.2-1.9-.3-4.5-.3-7.7V599h9.8v54.7c0 2.4 0 4.2.1 5.5s.5 2.4 1.1 3.4c1.2 2.2 3.2 3.6 5.9 4.1q4.05.75 10.8-.3v8.5z" class="st2"/><path id="path14" d="M1804.2 676.6q-8.7 0-15.3-3.9c-4.4-2.6-7.8-6.2-10.2-10.9q-3.6-7.05-3.6-16.2c0-6.4 1.2-12 3.5-16.8s5.7-8.5 10-11.1q6.45-3.9 15-3.9c5.9 0 11 1.4 15.2 4.1s7.4 6.7 9.5 11.8 3 11.2 2.7 18.2h-9.9v-3.5c-.1-4.9-.8-8.9-2.1-12.1q-1.95-4.8-5.7-7.2c-2.5-1.6-5.7-2.4-9.4-2.4-4 0-7.4.9-10.2 2.6s-4.9 4.3-6.3 7.6q-2.1 5.1-2.1 12.3c0 4.7.7 8.6 2.1 11.9s3.5 5.8 6.2 7.5 6 2.6 9.9 2.6c2.8 0 5.2-.3 7.3-.9s4.1-1.6 5.7-3c1.7-1.4 3.1-3.3 4.2-5.6h9.4c-1 4-2.8 7.4-5.3 10.2s-5.6 5-9.2 6.4c-3.3 1.6-7.2 2.3-11.4 2.3m-21.9-28.6v-7.9h43.9v7.9z" class="st2"/></g></g></g><g id="g17"><path id="polygon16" d="M1020.3 377h-43.8v158.2h43.8v-63.6h88.2v63.6h43.8V377h-43.8v58.7h-88.2z" class="st3"/><path id="polygon17" d="M1402.9 377v158.2h140.5V498h-96.7V377z" class="st3"/><path id="path17" d="m1246.7 377-70.2 158.2h44l12.8-29.3 3.4-7.9h78.4l3.5 7.9h.1l5.9 13.3 7.1 16.1h47L1305.4 377Zm51.8 83.8H1253l22.4-51.9z" class="st3"/></g></g><g id="g26"><g id="g19"><path id="path18" d="M688.9 391.5c10.7 10.8 24.9 16.7 40 16.8h.2c13 0 25.2-4.3 35.2-12.3-20.4-32.1-47.3-59.6-79-80.5-18.3 22.2-17.1 55.2 3.6 76" class="st2"/></g><g id="g20"><path id="path19" d="M674.5 407.3c-30.2-30.1-46.8-70-46.7-112.3 0-2.8.1-5.5.2-8.2-18.7-6.7-38.4-11.4-58.8-13.8-.7 7.2-1.1 14.5-1.2 21.8-.2 58.4 22.6 113.4 64.3 154.8 41.5 41.3 96.9 64.2 155.8 64.4h.8c5.3 0 10.6-.2 15.8-.6-2-20.5-6.3-40.3-12.6-59.2-42.5.9-85.3-14.8-117.6-46.9" style="fill:#cd3c1b"/></g><g id="g21"><path id="path20" d="M776.8 570.3c-59.7-24.1-113.1-59.5-159-105-45.8-45.5-81.2-98.5-105.2-157.5-4.6-11.3-8.7-22.7-12.4-34.2-20.1 2.8-39.5 7.8-58 14.7 4.4 14.1 9.4 28.1 15 41.9 27 66.5 66.9 126.1 118.4 177.4 51.5 51.2 111.6 90.9 178.7 118 10.9 4.4 22 8.5 33.1 12.2 7.2-18.4 12.4-37.7 15.5-57.8-8.7-2.9-17.4-6.2-26.1-9.7" style="fill:#a53232"/></g><g id="g22"><path id="path21" d="m747.5 707.1-376-378.7c-15.7 12.3-30 26.4-42.6 41.9l376.5 379.1c15.5-12.5 29.7-26.7 42.1-42.3" style="fill:#7d2d46"/></g><g id="g23"><path id="path22" d="M503.3 576.1c-51.5-51.2-111.6-90.9-178.7-118-12.7-5.1-25.5-9.7-38.4-13.9-7 18.4-12.1 37.8-14.9 57.9 10.4 3.4 20.7 7.2 30.9 11.3 59.7 24.1 113.1 59.5 159 105C507 664 542.4 717 566.3 776c4 9.7 7.6 19.6 10.9 29.5 20.1-3 39.4-8.2 57.8-15.4-4-12.3-8.4-24.5-13.4-36.6-27-66.5-66.8-126.2-118.3-177.4" style="fill:#64286e"/></g><g id="g24"><path id="path23" d="M446.7 634.1c-41.5-41.3-96.9-64.2-155.8-64.4q-10.35 0-20.4.9c2.3 20.5 7 40.2 13.6 59 2-.1 4-.1 6-.1 41.5 0 83 15.7 114.5 47 30.2 30.1 46.8 70 46.7 112.3 0 1.8-.1 3.7-.1 5.5 18.8 6.4 38.6 10.7 59 12.8.5-6 .8-12 .8-18.1.1-58.5-22.7-113.5-64.3-154.9" style="fill:#411489"/></g><g id="g25"><path id="path24" d="M390.2 692.2c-20.8-21-54.2-22.2-76.5-3.6 21.1 31.6 48.6 58.5 80.8 78.7 7.8-9.9 12.1-22.1 12.2-34.9 0-15.2-5.9-29.4-16.5-40.2" style="fill:#171775"/></g></g></g></g></svg>