<?xml version="1.0" encoding="UTF-8" standalone="no"?>
<!-- Generator: Adobe Illustrator 25.4.1, SVG Export Plug-In . SVG Version: 6.00 Build 0)  -->

<svg
   version="1.1"
   x="0px"
   y="0px"
   viewBox="0 0 1560.5563 534.09998"
   xml:space="preserve"
   id="svg27"
   sodipodi:docname="hal.svg"
   width="1560.5563"
   height="534.09998"
   inkscape:version="1.4.2 (ebf0e940d0, 2025-05-08)"
   xmlns:inkscape="http://www.inkscape.org/namespaces/inkscape"
   xmlns:sodipodi="http://sodipodi.sourceforge.net/DTD/sodipodi-0.dtd"
   xmlns="http://www.w3.org/2000/svg"
   xmlns:svg="http://www.w3.org/2000/svg"><defs
   id="defs27" /><sodipodi:namedview
   id="namedview27"
   pagecolor="#ffffff"
   bordercolor="#000000"
   borderopacity="0.25"
   inkscape:showpageshadow="2"
   inkscape:pageopacity="0.0"
   inkscape:pagecheckerboard="0"
   inkscape:deskcolor="#d1d1d1"
   inkscape:zoom="0.36903176"
   inkscape:cx="547.37836"
   inkscape:cy="154.45825"
   inkscape:window-width="1920"
   inkscape:window-height="1123"
   inkscape:window-x="35"
   inkscape:window-y="32"
   inkscape:window-maximized="0"
   inkscape:current-layer="svg27" />
<style
   type="text/css"
   id="style1">
	.st0{display:none;}
	.st1{display:inline;fill:#FFFFFF;}
	.st2{fill:#FF4600;}
	.st3{fill:#00005F;}
	.st4{fill:#CD3C1B;}
	.st5{fill:#A53232;}
	.st6{fill:#7D2D46;}
	.st7{fill:#64286E;}
	.st8{fill:#411489;}
	.st9{fill:#171775;}
</style>
<g
   id="Background"
   class="st0"
   transform="translate(-270.5,-273)">
	<rect
   x="-11.4"
   y="-10.5"
   class="st1"
   width="2121.1001"
   height="1101"
   id="rect1" />
</g>
<g
   id="Contenu"
   transform="translate(-270.5,-273)">
	<g
   id="g27">
		<g
   id="g18">
			<g
   id="g16">
				<g
   id="g15">
					<g
   id="g14">
						<path
   class="st2"
   d="m 1000.8,676.5 c -4.8,0 -9.1,-0.7 -12.9,-2.1 -3.8,-1.4 -6.9,-3.5 -9.2,-6.3 -2.3,-2.8 -3.5,-6.1 -3.6,-10 h 10 c 0.1,1.9 0.9,3.7 2.4,5.1 1.5,1.5 3.5,2.6 5.9,3.4 2.5,0.8 5.1,1.2 8,1.2 2.7,0 5,-0.4 7,-1.2 2,-0.8 3.5,-1.9 4.5,-3.3 1,-1.4 1.6,-3.1 1.6,-5 0,-1.7 -0.4,-3.1 -1.2,-4.1 -0.8,-1 -2.3,-2 -4.6,-2.8 -2.3,-0.9 -5.9,-2 -11,-3.4 -5.4,-1.4 -9.5,-2.8 -12.5,-4.3 -3,-1.5 -5.1,-3.2 -6.4,-5.2 -1.3,-2 -1.9,-4.4 -1.9,-7.3 0,-3.4 1,-6.5 2.9,-9.1 1.9,-2.6 4.6,-4.7 8,-6.1 3.4,-1.4 7.4,-2.2 11.9,-2.2 4.6,0 8.7,0.7 12.3,2.1 3.6,1.4 6.5,3.5 8.7,6.2 2.2,2.7 3.4,5.9 3.6,9.7 h -10 c -0.1,-2 -0.9,-3.6 -2.1,-5 -1.3,-1.4 -3,-2.4 -5.1,-3.1 -2.1,-0.7 -4.6,-1.1 -7.4,-1.2 -2.5,-0.1 -4.8,0.2 -6.7,0.9 -2,0.7 -3.5,1.6 -4.6,2.9 -1.1,1.3 -1.7,2.7 -1.7,4.4 0,1.5 0.5,2.8 1.4,3.7 0.9,1 2.5,1.9 4.9,2.8 2.3,0.9 5.9,2 10.7,3.2 5.3,1.4 9.5,2.8 12.4,4.3 2.9,1.5 5.1,3.4 6.4,5.4 1.3,2.1 2,4.7 2,7.8 0,3.8 -0.9,7.1 -2.8,9.8 -1.9,2.8 -4.6,4.9 -8.2,6.4 -3.6,1.7 -7.8,2.4 -12.7,2.4 z"
   id="path1" />
						<path
   class="st2"
   d="m 1063.9,676.6 c -5.9,0 -10.9,-1.3 -15.2,-4 -4.3,-2.7 -7.5,-6.4 -9.7,-11.1 -2.2,-4.7 -3.4,-10.2 -3.4,-16.3 0,-6.2 1.2,-11.7 3.5,-16.4 2.3,-4.7 5.5,-8.4 9.8,-11 4.3,-2.6 9.3,-3.9 15.2,-3.9 4.1,0 7.9,0.7 11.4,2.1 3.4,1.4 6.4,3.4 8.8,6 2.4,2.6 4.1,5.7 5.1,9.2 l -9.7,2.9 c -1.3,-3.4 -3.3,-6.1 -6.1,-8 -2.8,-1.9 -6,-2.9 -9.6,-2.9 -5.9,0 -10.3,2 -13.3,6 -3,4 -4.5,9.4 -4.6,16.1 0,4.5 0.7,8.4 2.1,11.7 1.4,3.3 3.4,5.9 6.1,7.7 2.7,1.8 5.9,2.7 9.8,2.7 3.8,0 7,-0.9 9.6,-2.6 2.6,-1.8 4.6,-4.3 5.9,-7.8 l 9.9,2.6 c -2.1,5.5 -5.3,9.8 -9.6,12.7 -4.5,2.8 -9.8,4.3 -16,4.3 z"
   id="path2" />
						<path
   class="st2"
   d="m 1103.9,605 v -10.1 h 9.8 V 605 Z m 0,69.9 v -59.4 h 9.8 v 59.4 z"
   id="path3" />
						<path
   class="st2"
   d="m 1158.2,676.6 c -5.8,0 -10.9,-1.3 -15.3,-3.9 -4.4,-2.6 -7.8,-6.2 -10.2,-10.9 -2.4,-4.7 -3.6,-10.1 -3.6,-16.2 0,-6.4 1.2,-12 3.5,-16.8 2.3,-4.8 5.7,-8.5 10,-11.1 4.3,-2.6 9.3,-3.9 15,-3.9 5.9,0 11,1.4 15.2,4.1 4.2,2.8 7.4,6.7 9.5,11.8 2.1,5.1 3,11.2 2.7,18.2 h -9.9 v -3.5 c -0.1,-4.9 -0.8,-8.9 -2.1,-12.1 -1.3,-3.2 -3.2,-5.6 -5.7,-7.2 -2.5,-1.6 -5.7,-2.4 -9.4,-2.4 -4,0 -7.4,0.9 -10.2,2.6 -2.8,1.7 -4.9,4.3 -6.3,7.6 -1.4,3.3 -2.1,7.5 -2.1,12.3 0,4.7 0.7,8.6 2.1,11.9 1.4,3.3 3.5,5.8 6.2,7.5 2.7,1.7 6,2.6 9.9,2.6 2.8,0 5.2,-0.3 7.3,-0.9 2.1,-0.6 4.1,-1.6 5.7,-3 1.7,-1.4 3.1,-3.3 4.2,-5.6 h 9.4 c -1,4 -2.8,7.4 -5.3,10.2 -2.5,2.8 -5.6,5 -9.2,6.4 -3.3,1.6 -7.2,2.3 -11.4,2.3 z m -22,-28.6 v -7.9 h 43.9 v 7.9 z"
   id="path4" />
						<path
   class="st2"
   d="m 1199.6,674.9 0.1,-31.3 h 9.8 v 16.7 l 0.1,2 -0.1,12.7 h -9.9 z m 42.3,-29.7 c 0,-4.3 -0.5,-8 -1.4,-11.2 -0.9,-3.2 -2.5,-5.7 -4.9,-7.7 -2.3,-2 -5.5,-3 -9.5,-3 -3.4,0 -6.3,0.8 -8.8,2.3 -2.5,1.5 -4.4,3.8 -5.8,6.8 -1.4,3 -2.1,6.8 -2.1,11.3 h -9.8 c 0,-6.9 1.3,-12.5 3.8,-17 2.5,-4.5 5.8,-7.7 9.9,-9.8 4.1,-2.1 8.6,-3 13.4,-2.9 4.8,0.1 9.1,1.3 12.9,3.5 3.8,2.2 6.8,5.4 9,9.6 2.2,4.2 3.2,9.2 3.2,15 V 675 h -9.9 z"
   id="path5" />
						<path
   class="st2"
   d="m 1293.4,676.6 c -5.9,0 -10.9,-1.3 -15.2,-4 -4.3,-2.7 -7.5,-6.4 -9.7,-11.1 -2.2,-4.7 -3.4,-10.2 -3.4,-16.3 0,-6.2 1.2,-11.7 3.5,-16.4 2.3,-4.7 5.5,-8.4 9.8,-11 4.3,-2.6 9.3,-3.9 15.2,-3.9 4.1,0 7.9,0.7 11.4,2.1 3.4,1.4 6.4,3.4 8.8,6 2.4,2.6 4.1,5.7 5.1,9.2 l -9.7,2.9 c -1.3,-3.4 -3.3,-6.1 -6.1,-8 -2.8,-1.9 -6,-2.9 -9.6,-2.9 -5.9,0 -10.3,2 -13.3,6 -3,4 -4.5,9.4 -4.6,16.1 0,4.5 0.7,8.4 2.1,11.7 1.4,3.3 3.4,5.9 6.1,7.7 2.7,1.8 5.9,2.7 9.8,2.7 3.8,0 7,-0.9 9.6,-2.6 2.6,-1.8 4.6,-4.3 5.9,-7.8 l 9.9,2.6 c -2.1,5.5 -5.3,9.8 -9.6,12.7 -4.6,2.8 -9.8,4.3 -16,4.3 z"
   id="path6" />
						<path
   class="st2"
   d="m 1358,676.6 c -5.8,0 -10.9,-1.3 -15.3,-3.9 -4.4,-2.6 -7.8,-6.2 -10.2,-10.9 -2.4,-4.7 -3.6,-10.1 -3.6,-16.2 0,-6.4 1.2,-12 3.5,-16.8 2.3,-4.8 5.7,-8.5 10,-11.1 4.3,-2.6 9.3,-3.9 15,-3.9 5.9,0 11,1.4 15.2,4.1 4.2,2.8 7.4,6.7 9.5,11.8 2.1,5.1 3,11.2 2.7,18.2 h -9.9 v -3.5 c -0.1,-4.9 -0.8,-8.9 -2.1,-12.1 -1.3,-3.2 -3.2,-5.6 -5.7,-7.2 -2.5,-1.6 -5.7,-2.4 -9.4,-2.4 -4,0 -7.4,0.9 -10.2,2.6 -2.8,1.7 -4.9,4.3 -6.3,7.6 -1.4,3.3 -2.1,7.5 -2.1,12.3 0,4.7 0.7,8.6 2.1,11.9 1.4,3.3 3.5,5.8 6.2,7.5 2.7,1.7 6,2.6 9.9,2.6 2.8,0 5.2,-0.3 7.3,-0.9 2.1,-0.6 4.1,-1.6 5.7,-3 1.7,-1.4 3.1,-3.3 4.2,-5.6 h 9.4 c -1,4 -2.8,7.4 -5.3,10.2 -2.5,2.8 -5.6,5 -9.2,6.4 -3.2,1.6 -7.1,2.3 -11.4,2.3 z M 1336.1,648 v -7.9 h 43.9 v 7.9 z"
   id="path7" />
						<path
   class="st2"
   d="m 1449,676.6 c -5.8,0 -10.9,-1.3 -15.2,-4 -4.3,-2.7 -7.6,-6.4 -9.9,-11.1 -2.3,-4.8 -3.5,-10.2 -3.5,-16.3 0,-6.2 1.2,-11.6 3.5,-16.3 2.3,-4.7 5.7,-8.4 10,-11 4.3,-2.6 9.4,-3.9 15.1,-3.9 5.9,0 11,1.3 15.3,4 4.3,2.6 7.6,6.3 9.9,11.1 2.3,4.7 3.5,10.2 3.5,16.3 0,6.2 -1.2,11.7 -3.5,16.4 -2.3,4.7 -5.7,8.4 -10,11.1 -4.3,2.4 -9.4,3.7 -15.2,3.7 z m 0,-9.3 c 4,0 7.4,-0.9 10.1,-2.8 2.7,-1.8 4.8,-4.4 6.1,-7.8 1.4,-3.3 2,-7.2 2,-11.6 0,-6.8 -1.6,-12.2 -4.7,-16.1 -3.1,-3.9 -7.6,-5.9 -13.6,-5.9 -4,0 -7.4,0.9 -10.1,2.8 -2.7,1.8 -4.7,4.4 -6.1,7.7 -1.3,3.3 -2,7.2 -2,11.6 0,4.5 0.7,8.4 2.1,11.7 1.4,3.3 3.4,5.9 6.2,7.7 2.8,1.8 6.1,2.7 10,2.7 z"
   id="path8" />
						<path
   class="st2"
   d="m 1517.1,677.1 c -5.8,0 -10.7,-1.2 -14.6,-3.6 -3.9,-2.4 -6.8,-5.8 -8.7,-10 -1.9,-4.2 -2.8,-9.3 -2.8,-15.1 v -32.9 h 9.9 v 31.1 c 0,5 0.8,9.1 2.3,12.2 1.5,3.1 3.5,5.4 5.9,6.8 2.4,1.4 5.1,2.1 8.1,2.1 3,0 5.7,-0.6 8.1,-1.9 2.4,-1.3 4.4,-3.4 5.9,-6.5 1.5,-3 2.3,-7.1 2.3,-12.1 l 9.8,-0.1 c 0,7.4 -1.1,13.4 -3.3,17.8 -2.2,4.4 -5.2,7.5 -9,9.4 -3.8,1.9 -8.6,2.8 -13.9,2.8 z m 16.2,-29.8 V 631 628.4 615.6 h 9.9 l -0.1,31.7 z"
   id="path9" />
						<path
   class="st2"
   d="m 1576.8,674.9 -21.6,-59.4 h 9.9 l 16.7,46.9 16.6,-46.9 h 10 l -21.6,59.4 z"
   id="path10" />
						<path
   class="st2"
   d="m 1646.2,676.6 c -5.8,0 -10.9,-1.3 -15.3,-3.9 -4.4,-2.6 -7.8,-6.2 -10.2,-10.9 -2.4,-4.7 -3.6,-10.1 -3.6,-16.2 0,-6.4 1.2,-12 3.5,-16.8 2.3,-4.8 5.7,-8.5 10,-11.1 4.3,-2.6 9.3,-3.9 15,-3.9 5.9,0 11,1.4 15.2,4.1 4.2,2.7 7.4,6.7 9.5,11.8 2.1,5.1 3,11.2 2.7,18.2 h -9.9 v -3.5 c -0.1,-4.9 -0.8,-8.9 -2.1,-12.1 -1.3,-3.2 -3.2,-5.6 -5.7,-7.2 -2.5,-1.6 -5.7,-2.4 -9.4,-2.4 -4,0 -7.4,0.9 -10.2,2.6 -2.8,1.7 -4.9,4.3 -6.3,7.6 -1.4,3.4 -2.1,7.5 -2.1,12.3 0,4.7 0.7,8.6 2.1,11.9 1.4,3.3 3.5,5.8 6.2,7.5 2.7,1.7 6,2.6 9.9,2.6 2.8,0 5.2,-0.3 7.3,-0.9 2.1,-0.6 4.1,-1.6 5.7,-3 1.7,-1.4 3.1,-3.3 4.2,-5.6 h 9.4 c -1,4 -2.8,7.4 -5.3,10.2 -2.5,2.8 -5.6,5 -9.2,6.4 -3.3,1.6 -7.2,2.3 -11.4,2.3 z M 1624.3,648 v -7.9 h 43.9 v 7.9 z"
   id="path11" />
						<path
   class="st2"
   d="m 1687.7,674.9 v -39.2 l 8.7,-9.4 v 3.5 l -8.7,5.8 c 0,-2.6 0.7,-5.2 2.2,-7.9 1.5,-2.7 3.6,-5.2 6.5,-7.8 1.8,-1.6 4,-2.8 6.7,-3.6 2.7,-0.8 5.5,-1.3 8.2,-1.4 2.7,-0.1 5.1,0 7,0.4 v 9.2 c -2.3,-0.6 -4.8,-0.8 -7.3,-0.5 -2.5,0.3 -4.8,1.1 -6.7,2.4 -1.7,1.1 -3,2.4 -4,3.8 -1,1.4 -1.7,3 -2.1,4.6 -0.4,1.6 -0.7,3.4 -0.7,5.4 v 0.6 34 h -9.8 z"
   id="path12" />
						<path
   class="st2"
   d="m 1724.4,623.6 v -8.1 h 39.8 v 8.1 z m 39.7,51.3 c -5.8,1.2 -11.1,1.2 -15.8,0.2 -4.7,-1.1 -8,-3.5 -9.9,-7.3 -1,-1.9 -1.5,-3.8 -1.8,-5.7 -0.2,-1.9 -0.3,-4.5 -0.3,-7.7 V 652.5 599 h 9.8 v 53 1.7 c 0,2.4 0,4.2 0.1,5.5 0.1,1.3 0.5,2.4 1.1,3.4 1.2,2.2 3.2,3.6 5.9,4.1 2.7,0.5 6.3,0.4 10.8,-0.3 v 8.5 z"
   id="path13" />
						<path
   class="st2"
   d="m 1804.2,676.6 c -5.8,0 -10.9,-1.3 -15.3,-3.9 -4.4,-2.6 -7.8,-6.2 -10.2,-10.9 -2.4,-4.7 -3.6,-10.1 -3.6,-16.2 0,-6.4 1.2,-12 3.5,-16.8 2.3,-4.8 5.7,-8.5 10,-11.1 4.3,-2.6 9.3,-3.9 15,-3.9 5.9,0 11,1.4 15.2,4.1 4.2,2.7 7.4,6.7 9.5,11.8 2.1,5.1 3,11.2 2.7,18.2 h -9.9 v -3.5 c -0.1,-4.9 -0.8,-8.9 -2.1,-12.1 -1.3,-3.2 -3.2,-5.6 -5.7,-7.2 -2.5,-1.6 -5.7,-2.4 -9.4,-2.4 -4,0 -7.4,0.9 -10.2,2.6 -2.8,1.7 -4.9,4.3 -6.3,7.6 -1.4,3.4 -2.1,7.5 -2.1,12.3 0,4.7 0.7,8.6 2.1,11.9 1.4,3.3 3.5,5.8 6.2,7.5 2.7,1.7 6,2.6 9.9,2.6 2.8,0 5.2,-0.3 7.3,-0.9 2.1,-0.6 4.1,-1.6 5.7,-3 1.7,-1.4 3.1,-3.3 4.2,-5.6 h 9.4 c -1,4 -2.8,7.4 -5.3,10.2 -2.5,2.8 -5.6,5 -9.2,6.4 -3.3,1.6 -7.2,2.3 -11.4,2.3 z M 1782.3,648 v -7.9 h 43.9 v 7.9 z"
   id="path14" />
					</g>
				</g>
			</g>
			<g
   id="g17">
				<polygon
   class="st3"
   points="1020.3,377 976.5,377 976.5,535.2 1020.3,535.2 1020.3,471.6 1108.5,471.6 1108.5,535.2 1152.3,535.2 1152.3,377 1108.5,377 1108.5,435.7 1020.3,435.7 "
   id="polygon16" />
				<polygon
   class="st3"
   points="1402.9,377 1402.9,535.2 1543.4,535.2 1543.4,498 1446.7,498 1446.7,377 "
   id="polygon17" />
				<path
   class="st3"
   d="m 1246.7,377 -70.2,158.2 h 44 l 12.8,-29.3 v 0 l 3.4,-7.9 h 78.4 l 3.5,7.9 h 0.1 l 5.9,13.3 v 0 l 7.1,16.1 h 47 L 1305.4,377 Z m 51.8,83.8 H 1253 l 22.4,-51.9 z"
   id="path17" />
			</g>
		</g>
		<g
   id="g26">
			<g
   id="g19">
				<path
   class="st2"
   d="m 688.9,391.5 c 10.7,10.8 24.9,16.7 40,16.8 0.1,0 0.1,0 0.2,0 13,0 25.2,-4.3 35.2,-12.3 -20.4,-32.1 -47.3,-59.6 -79,-80.5 -18.3,22.2 -17.1,55.2 3.6,76 z"
   id="path18" />
			</g>
			<g
   id="g20">
				<path
   class="st4"
   d="m 674.5,407.3 c -30.2,-30.1 -46.8,-70 -46.7,-112.3 0,-2.8 0.1,-5.5 0.2,-8.2 -18.7,-6.7 -38.4,-11.4 -58.8,-13.8 -0.7,7.2 -1.1,14.5 -1.2,21.8 -0.2,58.4 22.6,113.4 64.3,154.8 41.5,41.3 96.9,64.2 155.8,64.4 0.3,0 0.5,0 0.8,0 5.3,0 10.6,-0.2 15.8,-0.6 -2,-20.5 -6.3,-40.3 -12.6,-59.2 -42.5,0.9 -85.3,-14.8 -117.6,-46.9 z"
   id="path19" />
			</g>
			<g
   id="g21">
				<path
   class="st5"
   d="M 776.8,570.3 C 717.1,546.2 663.7,510.8 617.8,465.3 572,419.8 536.6,366.8 512.6,307.8 c -4.6,-11.3 -8.7,-22.7 -12.4,-34.2 -20.1,2.8 -39.5,7.8 -58,14.7 4.4,14.1 9.4,28.1 15,41.9 27,66.5 66.9,126.1 118.4,177.4 51.5,51.2 111.6,90.9 178.7,118 10.9,4.4 22,8.5 33.1,12.2 7.2,-18.4 12.4,-37.7 15.5,-57.8 -8.7,-2.9 -17.4,-6.2 -26.1,-9.7 z"
   id="path20" />
			</g>
			<g
   id="g22">
				<path
   class="st6"
   d="m 747.5,707.1 -376,-378.7 c -15.7,12.3 -30,26.4 -42.6,41.9 l 376.5,379.1 c 15.5,-12.5 29.7,-26.7 42.1,-42.3 z"
   id="path21" />
			</g>
			<g
   id="g23">
				<path
   class="st7"
   d="m 503.3,576.1 c -51.5,-51.2 -111.6,-90.9 -178.7,-118 -12.7,-5.1 -25.5,-9.7 -38.4,-13.9 -7,18.4 -12.1,37.8 -14.9,57.9 10.4,3.4 20.7,7.2 30.9,11.3 59.7,24.1 113.1,59.5 159,105 45.8,45.6 81.2,98.6 105.1,157.6 4,9.7 7.6,19.6 10.9,29.5 20.1,-3 39.4,-8.2 57.8,-15.4 -4,-12.3 -8.4,-24.5 -13.4,-36.6 C 594.6,687 554.8,627.3 503.3,576.1 Z"
   id="path22" />
			</g>
			<g
   id="g24">
				<path
   class="st8"
   d="m 446.7,634.1 c -41.5,-41.3 -96.9,-64.2 -155.8,-64.4 -6.9,0 -13.7,0.3 -20.4,0.9 2.3,20.5 7,40.2 13.6,59 2,-0.1 4,-0.1 6,-0.1 41.5,0 83,15.7 114.5,47 30.2,30.1 46.8,70 46.7,112.3 0,1.8 -0.1,3.7 -0.1,5.5 18.8,6.4 38.6,10.7 59,12.8 0.5,-6 0.8,-12 0.8,-18.1 0.1,-58.5 -22.7,-113.5 -64.3,-154.9 z"
   id="path23" />
			</g>
			<g
   id="g25">
				<path
   class="st9"
   d="m 390.2,692.2 c -20.8,-21 -54.2,-22.2 -76.5,-3.6 21.1,31.6 48.6,58.5 80.8,78.7 7.8,-9.9 12.1,-22.1 12.2,-34.9 0,-15.2 -5.9,-29.4 -16.5,-40.2 z"
   id="path24" />
			</g>
		</g>
	</g>
</g>
</svg>
