<svg xmlns="http://www.w3.org/2000/svg" width="151.181" height="151.181" viewBox="0 0 40 40"><g transform="translate(0 -257)"><circle cx="20" cy="277" r="19.5" style="display:inline;opacity:1;fill:#252c61;fill-opacity:1;fill-rule:evenodd;stroke:none;stroke-width:.108894;stroke-linecap:round;stroke-linejoin:round;stroke-miterlimit:4;stroke-dasharray:none;stroke-dashoffset:0;stroke-opacity:1"/><g style="display:inline"><path d="M0 0q0-3.512 1.947-6.143t5.425-2.631q1.53 0 3.152.753t1.622 1.148V5.088q0 .44-.601 1.043-1.855 2.55-4.927 2.551-3.072 0-4.845-2.585T0 0m10.455 9.944q1.02-.359 1.251-.359.233 0 .291.012.057.011.149.289v11.962q0 .974-1.065 1.344-.465.163-.997.267a7 7 0 0 0-.846.197q-.314.092-.394.175-.082.08-.081.347 0 .265.347.452l5.911 2.782q.278.138.348.139.395 0 .395-.557v-33.01q.114-1.02.58-1.46.463-.44 1.506-.44l1.344.092q.14 0 .139-.266 0-.268-.347-.429l-6.167-2.551q-.279-.138-.475-.138-.197 0-.198.579v2.11q0 .231-.115.231-.163.001-1.924-1.043-5.402-3.2-9.11-.95-2.967 1.808-4.011 5.726A15 15 0 0 0-3.5-.673q0 2.052.846 4.08A11.3 11.3 0 0 0-.325 6.966q3.268 3.338 7.882 3.338 1.878 0 2.898-.36" style="fill:#fefeff;fill-opacity:1;fill-rule:nonzero;stroke:none" transform="matrix(.20862 0 0 -.20862 11.442 285.212)"/></g><path d="M8.401 279.44h1.974l-.606.268-.106 7.542.712.271h-1.95l.625-.277-.06-7.566z" style="display:inline;opacity:1;fill:#fff;fill-opacity:1;fill-rule:evenodd;stroke:none;stroke-width:.64473;stroke-linecap:round;stroke-miterlimit:4;stroke-dasharray:none;stroke-dashoffset:0;stroke-opacity:.466667"/><path d="M14.898 269.412h-2.867V265.1h2.867z" style="display:inline;fill:#fff;fill-opacity:1;fill-rule:nonzero;stroke:none;stroke-width:.103394"/><path d="M14.9 276.754h-2.856v-4.325H14.9z" style="display:inline;fill:#fff;fill-opacity:1;fill-rule:nonzero;stroke:none;stroke-width:.103333"/><path d="m17.234 269.443-.007-4.39 7.048.041s5.33.16 5.324 5.801c-.006 5.532-5.204 5.847-5.204 5.847l-7.12.017-.024-4.31 2.863-.03.014 1.464 4.298-.063s2.257-.31 2.322-2.776c-.04-2.68-2.527-3.068-2.527-3.068h-4.093l-.014 1.46z" style="display:inline;fill:#fff;fill-opacity:1;stroke:none;stroke-width:.249327px;stroke-linecap:butt;stroke-linejoin:miter;stroke-opacity:1"/><rect width="11.495" height="1.552" x="10.393" y="270.146" ry=".776" style="display:inline;opacity:1;fill:#d50b52;fill-opacity:1;fill-rule:evenodd;stroke:none;stroke-width:.569589;stroke-linecap:round;stroke-miterlimit:4;stroke-dasharray:none;stroke-dashoffset:0;stroke-opacity:.466667"/><g style="fill:#d50b52;fill-opacity:1;stroke:#d50b52;stroke-width:1.63498;stroke-miterlimit:4;stroke-dasharray:none;stroke-opacity:1"><path d="M0 0c6.153-.046 10.534 1.576 10.419 7.359.12 5.936-3.928 7.244-8.672 7.243h-8.266V0zm-10.549 17.73H2.126c8.334.034 12.451-3.327 12.558-10.571-.09-7.168-4.199-10.596-10.573-10.747l11.401-15.819h-4.908L.198-3.88h-6.717v-15.527h-4.03z" style="fill:#d50b52;fill-opacity:1;fill-rule:nonzero;stroke:#d50b52;stroke-width:1.63498;stroke-miterlimit:4;stroke-dasharray:none;stroke-opacity:1" transform="matrix(.20615 0 0 -.20252 19.578 283.281)"/></g><g style="fill:#da1259;fill-opacity:1;stroke:#da1259;stroke-width:1.63498;stroke-miterlimit:4;stroke-dasharray:none;stroke-opacity:1"><path d="M0-10.452V-9.4q0 .641-.117 1.402A13 13 0 0 1-.468-6.42a6.3 6.3 0 0 1-.701 1.576q-.876 1.46-2.277 2.074-1.403.614-2.745.613-2.513 0-4.499-1.898-1.986-1.899-2.394-6.396zm-13.201-2.803q0-1.928.263-3.972.263-2.046 1.081-3.739a7.36 7.36 0 0 1 2.278-2.774q1.46-1.08 3.854-1.08 1.986 0 3.476.788t2.716 2.308l2.686-2.103q-1.869-2.339-3.942-3.299-2.073-.966-5.053-.965-2.804 0-4.906 1.197a10.9 10.9 0 0 0-3.504 3.154q-1.402 1.956-2.132 4.411a17.3 17.3 0 0 0-.73 4.964q0 2.57.438 5.286t2.073 5.344Q-12.91-1.05-10.66.005a10.8 10.8 0 0 0 4.643 1.05q3.214-.001 5.14-1.285a8.77 8.77 0 0 0 2.979-3.33q1.053-2.044 1.402-4.614a57 57 0 0 0 .468-5.08z" style="fill:#da1259;fill-opacity:1;fill-rule:nonzero;stroke:#da1259;stroke-width:1.63498;stroke-miterlimit:4;stroke-dasharray:none;stroke-opacity:1" transform="matrix(.20615 0 0 -.20252 27.458 281.523)"/></g><g style="fill:#da1259;fill-opacity:1;stroke:#da1259;stroke-opacity:1"><path d="M0 0a7.4 7.4 0 0 1-1.724.76 6.4 6.4 0 0 1-1.839.292q-1.344 0-2.162-.496A3.4 3.4 0 0 1-6.979-.759a5.5 5.5 0 0 1-.584-1.868 15.5 15.5 0 0 1-.147-2.162v-5.082h6.775v-2.979h-6.658l.031-19.965h-3.796l-.032 19.965h-5.723v2.979h5.723v5.199q0 .758.058 1.781.057 1.022.315 2.073a7.3 7.3 0 0 0 .863 2.046q.603.992 1.7 1.809 1.093.819 2.146 1.052a9.7 9.7 0 0 0 2.103.233 20 20 0 0 0 1.197-.029q.496-.03.934-.116.438-.088.906-.234.466-.147 1.168-.321z" style="fill:#da1259;fill-opacity:1;fill-rule:nonzero;stroke:#da1259;stroke-width:1.63498;stroke-miterlimit:4;stroke-dasharray:none;stroke-opacity:1" transform="matrix(.20615 0 0 -.20252 32.863 280.566)"/></g></g></svg>