<svg width="151.181" height="151.181" viewBox="0 0 40 40" xmlns="http://www.w3.org/2000/svg"><g transform="translate(0 -257)"><circle style="display:inline;opacity:1;fill:#252c61;fill-opacity:1;fill-rule:evenodd;stroke:none;stroke-width:.108894;stroke-linecap:round;stroke-linejoin:round;stroke-miterlimit:4;stroke-dasharray:none;stroke-dashoffset:0;stroke-opacity:1" cx="20" cy="277" r="19.5"/><g style="display:inline"><path d="M0 0c0-2.341.649-4.39 1.947-6.143 1.299-1.754 3.107-2.631 5.425-2.631 1.02 0 2.07.251 3.152.753 1.083.502 1.622.884 1.622 1.148V5.088c0 .293-.201.641-.601 1.043-1.237 1.7-2.879 2.551-4.927 2.551-2.049 0-3.662-.862-4.845-2.585C.591 4.373 0 2.341 0 0m10.455 9.944c.68-.239 1.096-.359 1.251-.359.155 0 .252.003.291.012.037.007.089.104.149.289v11.962c0 .649-.355 1.097-1.065 1.344-.31.109-.642.197-.997.267s-.637.135-.846.197c-.209.062-.341.119-.394.175-.055.053-.081.169-.081.347 0 .177.115.327.347.452l5.911 2.782c.186.092.301.139.348.139.263 0 .395-.186.395-.557v-33.01c.077-.68.269-1.167.58-1.46.308-.294.811-.44 1.506-.44l1.344.092c.093 0 .139-.089.139-.266 0-.179-.115-.322-.347-.429l-6.167-2.551c-.185-.092-.345-.138-.475-.138-.131 0-.198.194-.198.579v2.11c0 .154-.038.231-.115.231-.108 0-.75-.346-1.924-1.043-3.601-2.133-6.638-2.45-9.11-.95-1.978 1.206-3.315 3.114-4.011 5.726A15.08 15.08 0 0 0-3.5-.673c0 1.368.281 2.728.846 4.08A11.304 11.304 0 0 0-.325 6.966c2.179 2.225 4.806 3.338 7.882 3.338 1.252 0 2.218-.12 2.898-.36" style="fill:#fefeff;fill-opacity:1;fill-rule:nonzero;stroke:none" transform="matrix(.20862 0 0 -.20862 11.442 285.212)"/></g><path style="display:inline;opacity:1;fill:#fff;fill-opacity:1;fill-rule:evenodd;stroke:none;stroke-width:.64473;stroke-linecap:round;stroke-miterlimit:4;stroke-dasharray:none;stroke-dashoffset:0;stroke-opacity:.466667" d="M8.401 279.44h1.974l-.606.268-.106 7.542.712.271h-1.95l.625-.277-.06-7.566z"/><path d="M14.898 269.412h-2.867V265.1h2.867z" style="display:inline;fill:#fff;fill-opacity:1;fill-rule:nonzero;stroke:none;stroke-width:.103394"/><path d="M14.9 276.754h-2.856v-4.325H14.9z" style="display:inline;fill:#fff;fill-opacity:1;fill-rule:nonzero;stroke:none;stroke-width:.103333"/><path style="display:inline;fill:#fff;fill-opacity:1;stroke:none;stroke-width:.249327px;stroke-linecap:butt;stroke-linejoin:miter;stroke-opacity:1" d="m17.234 269.443-.007-4.39 7.048.041s5.33.16 5.324 5.801c-.006 5.532-5.204 5.847-5.204 5.847l-7.12.017-.024-4.31 2.863-.03.014 1.464 4.298-.063s2.257-.31 2.322-2.776c-.04-2.68-2.527-3.068-2.527-3.068h-4.093l-.014 1.46z"/><rect style="display:inline;opacity:1;fill:#d50b52;fill-opacity:1;fill-rule:evenodd;stroke:none;stroke-width:.569589;stroke-linecap:round;stroke-miterlimit:4;stroke-dasharray:none;stroke-dashoffset:0;stroke-opacity:.466667" width="11.495" height="1.552" x="10.393" y="270.146" ry=".776"/><g style="fill:#d50b52;fill-opacity:1;stroke:#d50b52;stroke-width:1.63498;stroke-miterlimit:4;stroke-dasharray:none;stroke-opacity:1"><path d="M0 0c6.153-.046 10.534 1.576 10.419 7.359.12 5.936-3.928 7.244-8.672 7.243h-8.266V0zm-10.549 17.73H2.126c8.334.034 12.451-3.327 12.558-10.571-.09-7.168-4.199-10.596-10.573-10.747l11.401-15.819h-4.908L.198-3.88h-6.717v-15.527h-4.03z" style="fill:#d50b52;fill-opacity:1;fill-rule:nonzero;stroke:#d50b52;stroke-width:1.63498;stroke-miterlimit:4;stroke-dasharray:none;stroke-opacity:1" transform="matrix(.20615 0 0 -.20252 19.578 283.281)"/></g><g style="fill:#da1259;fill-opacity:1;stroke:#da1259;stroke-width:1.63498;stroke-miterlimit:4;stroke-dasharray:none;stroke-opacity:1"><path d="M0-10.452V-9.4c0 .427-.039.895-.117 1.402A13.135 13.135 0 0 1-.468-6.42a6.306 6.306 0 0 1-.701 1.576c-.584.973-1.343 1.665-2.277 2.074-.936.41-1.85.613-2.745.613-1.675 0-3.175-.633-4.499-1.898-1.324-1.266-2.122-3.398-2.394-6.396zm-13.201-2.803c0-1.285.088-2.61.263-3.972.176-1.364.535-2.61 1.081-3.739a7.357 7.357 0 0 1 2.278-2.774c.974-.72 2.258-1.08 3.854-1.08 1.324 0 2.483.263 3.476.788.993.526 1.897 1.294 2.716 2.308l2.686-2.103C1.906-25.386.594-26.486-.789-27.126c-1.383-.645-3.066-.965-5.053-.965-1.869 0-3.505.398-4.906 1.197a10.878 10.878 0 0 0-3.504 3.154c-.935 1.305-1.645 2.774-2.132 4.411a17.26 17.26 0 0 0-.73 4.964c0 1.713.146 3.476.438 5.286.292 1.811.983 3.592 2.073 5.344 1.129 1.79 2.443 3.037 3.943 3.74a10.837 10.837 0 0 0 4.643 1.05c2.142 0 3.856-.43 5.14-1.285a8.765 8.765 0 0 0 2.979-3.33c.702-1.363 1.169-2.9 1.402-4.614.234-1.714.39-3.408.468-5.08z" style="fill:#da1259;fill-opacity:1;fill-rule:nonzero;stroke:#da1259;stroke-width:1.63498;stroke-miterlimit:4;stroke-dasharray:none;stroke-opacity:1" transform="matrix(.20615 0 0 -.20252 27.458 281.523)"/></g><g style="fill:#da1259;fill-opacity:1;stroke:#da1259;stroke-opacity:1"><path d="M0 0a7.354 7.354 0 0 1-1.724.76 6.354 6.354 0 0 1-1.839.292c-.896 0-1.617-.166-2.162-.496A3.396 3.396 0 0 1-6.979-.759a5.495 5.495 0 0 1-.584-1.868 15.472 15.472 0 0 1-.147-2.162v-5.082h6.775v-2.979h-6.658l.031-19.965h-3.796l-.032 19.965h-5.723v2.979h5.723v5.199c0 .505.019 1.099.058 1.781.038.681.143 1.373.315 2.073a7.29 7.29 0 0 0 .863 2.046c.402.661.969 1.264 1.7 1.809.729.546 1.444.896 2.146 1.052a9.708 9.708 0 0 0 2.103.233 20.4 20.4 0 0 0 1.197-.029c.33-.02.643-.058.934-.116.292-.059.594-.137.906-.234.311-.098.7-.205 1.168-.321z" style="fill:#da1259;fill-opacity:1;fill-rule:nonzero;stroke:#da1259;stroke-width:1.63498;stroke-miterlimit:4;stroke-dasharray:none;stroke-opacity:1" transform="matrix(.20615 0 0 -.20252 32.863 280.566)"/></g></g></svg>