<svg xmlns="http://www.w3.org/2000/svg" xml:space="preserve" width="210.5" height="204.094" overflow="visible" viewBox="0 0 210.5 204.094"><path fill="#fff" d="M210.338 163.131c1.007 5.722-2.821 11.193-8.558 12.198L39.591 203.932c-5.73 1.013-11.195-2.817-12.207-8.539L.163 40.976C-.853 35.242 2.981 29.77 8.711 28.757L170.903.163c5.72-1.015 11.193 2.817 12.196 8.549z"/><path fill="#a3c208" d="M167.059 37.563H63.176c-4.433 0-8.062 3.63-8.062 8.065V62.03l77.136-13.604c4.368-.77 8.572 2.174 9.345 6.543l18.074 102.617h7.39c4.435 0 8.071-3.638 8.071-8.071V45.628c0-4.435-3.636-8.065-8.071-8.065"/><path fill="#003a80" d="M55.114 149.515V62.032l-25.168 4.434c-4.364.772-7.311 4.972-6.541 9.349L41.444 178.12c.772 4.368 4.98 7.313 9.345 6.541l102.293-18.045c4.271-.742 7.166-4.78 6.587-9.031H55.114z"/><path fill="#259bd2" d="m159.669 155.757-.274.227-17.8-101.014c-.772-4.37-4.98-7.313-9.349-6.543L55.114 62.028v95.558h104.555z"/><path fill="#fff" d="M42.813 127.72h5.344v29.86h-5.344zm25.098.056v5.405h-3.017c-1.626 0-4.378 1.191-4.378 5.632v18.768h-5.405v-29.805h5.405v2.52l.507-.641c.972-1.234 2.562-1.879 4.607-1.879zm13.745-.402c6.261 0 10.486 3.66 11.037 9.557v.002h-5.519v-.002c-.479-2.824-2.362-4.256-5.631-4.256-4.233 0-5.121 1.937-5.121 3.57 0 1.162 1.003 2.126 2.669 2.564.844.237 1.796.48 2.791.717 1.644.416 3.356.837 4.836 1.33 4.046 1.331 6.367 4.103 6.367 7.617 0 6.083-4.102 9.554-11.258 9.554-6.471 0-10.877-4.016-11.204-10.224h5.401c.423 3.981 3.388 4.819 5.803 4.819 3.919 0 5.913-1.384 5.913-4.149 0-1.331-1.054-2.404-2.892-2.954-1.614-.518-3.2-.913-4.794-1.285-.789-.196-1.583-.376-2.378-.586-4.135-1.078-6.596-3.836-6.596-7.403 0-5.557 3.957-8.871 10.576-8.871m45.955-.061c6.881 0 11.315 4.27 11.315 10.873v6.42h-17.228v2.566c0 2.072.769 5.569 5.912 5.569 3.072 0 5.117-1.809 5.631-4.938h5.563c-.783 6.372-5.074 10.346-11.194 10.346-6.88 0-11.319-4.306-11.319-10.977v-8.986c.001-6.492 4.554-10.873 11.32-10.873m-5.912 11.944h11.766v-1.071c0-1.679-.564-5.571-5.854-5.571-3.749 0-5.912 2.034-5.912 5.571zm32.998-12.085c-5.015 0-10.348 3.015-10.935 9.746l-.012.154h5.669l.028-.125c.517-3.659 3.549-4.191 5.312-4.191 3.41 0 4.918 1.412 4.918 4.574v1.907h-6.782c-6.219 0-10.223 3.5-10.223 8.891 0 6.94 5.325 10.101 10.262 10.101 2.574 0 5.062-.863 6.508-2.269l.224-.203v1.829h5.76v-20.431c-.001-9.251-8.21-9.983-10.729-9.983m5.121 17.671v2.387c0 3.541-3.221 5.739-6.194 5.739-1.638 0-5.466-.462-5.466-4.841 0-2.272 1.743-3.567 4.776-3.567h6.884zM49.073 120.276a3.844 3.844 0 0 1-3.843 3.854 3.847 3.847 0 0 1-3.855-3.854 3.84 3.84 0 0 1 3.855-3.835 3.84 3.84 0 0 1 3.843 3.835m56.469-3.251v10.753h6.193v5.403h-6.193v16.606c0 1.604.81 2.449 2.327 2.449h3.988v5.344h-4.21c-4.762 0-7.501-2.929-7.501-8.014V133.18h-5.408v-5.403h5.408v-10.753h5.396z"/></svg>