<svg xmlns="http://www.w3.org/2000/svg" xml:space="preserve" width="720" height="256" viewBox="0 0 123.1 43.691"><path fill="#231f1f" d="M50.487 2.04v29.034s11.162-1.299 11.162 9.604V13.201c0-10.383-11.162-11.161-11.162-11.161"/><path fill="#aaa" d="M55.715 0v25.547s6.162 1.189 6.162 12.091c0 10.903.031-20.283.031-26.124C61.909 1.132 55.715 0 55.715 0"/><path fill="#3978ad" d="M62.077 12.941v26.422s5.359-15.01 27.887 4.328c0-7.008.043-24.683.043-30.525-22.268-16.223-27.93-.225-27.93-.225M0 32.718h5v-6.399h2.848c4.388 0 6.852-1.996 6.852-6.55 0-4.427-2.869-6.349-7.018-6.349H0zm5-15.299h.853c1.965 0 3.646.027 3.646 2.503 0 2.396-1.81 2.396-3.646 2.396H5zm11.699 2.2v7.871c0 4.304 3.073 5.629 7.05 5.629S30.8 31.795 30.8 27.49v-7.871h-4.7v6.974c0 1.654-.414 2.825-2.351 2.825s-2.35-1.171-2.35-2.825v-6.974zM33.6 32.718h4.7v-1.459h.051c.841 1.282 2.42 1.859 3.949 1.859 3.898 0 6.6-3.225 6.6-7.013 0-3.764-2.677-6.988-6.549-6.988-1.503 0-3.057.574-4.05 1.747v-9.347h-4.7zm7.5-9.6c1.897 0 3 1.378 3 3.014 0 1.688-1.102 2.986-3 2.986s-3-1.298-3-2.986c0-1.636 1.102-3.014 3-3.014"/><path fill="#fff" d="M64.2 32.718h4.992l1.613-11.111h.051l4.43 11.111h1.998l4.634-11.111h.051l1.408 11.111h5.022l-2.922-19.299h-4.992l-4.149 10.314-3.918-10.314h-4.941z"/><path fill="#3978ad" d="M96.7 24.218c.281-1.374 1.408-2.1 2.764-2.1 1.254 0 2.406.83 2.639 2.1zm9.726 2.213c0-4.49-2.65-7.313-7.227-7.313-4.293 0-7.299 2.636-7.299 7.013 0 4.53 3.264 6.987 7.637 6.987 3.008 0 5.965-1.406 6.711-4.5h-4.492c-.512.869-1.23 1.201-2.23 1.201-1.924 0-2.926-1.019-2.926-2.901h9.826zm11.973 6.287h4.701v-21.2h-4.701v9.347c-.969-1.173-2.549-1.747-4.051-1.747-3.873 0-6.549 3.225-6.549 6.987s2.727 7.012 6.6 7.012c1.527 0 3.133-.578 3.947-1.859h.053zm-2.799-9.6c1.896 0 3 1.378 3 3.014 0 1.688-1.102 2.986-3 2.986-1.896 0-3-1.298-3-2.986 0-1.636 1.102-3.014 3-3.014"/></svg>