<?xml version="1.0" encoding="UTF-8" standalone="no"?>
<svg
   version="1.0"
   width="600.000000pt"
   height="400.000000pt"
   viewBox="0 0 600.000000 400.000000"
   preserveAspectRatio="xMidYMid meet"
   id="svg6"
   sodipodi:docname="scanr.svg"
   inkscape:version="1.4.2 (ebf0e940d0, 2025-05-08)"
   xmlns:inkscape="http://www.inkscape.org/namespaces/inkscape"
   xmlns:sodipodi="http://sodipodi.sourceforge.net/DTD/sodipodi-0.dtd"
   xmlns="http://www.w3.org/2000/svg"
   xmlns:svg="http://www.w3.org/2000/svg">
  <defs
     id="defs6">
    <rect
       x="163.96039"
       y="452.99728"
       width="357.08369"
       height="58.973895"
       id="rect8" />
  </defs>
  <sodipodi:namedview
     id="namedview6"
     pagecolor="#ffffff"
     bordercolor="#000000"
     borderopacity="0.25"
     inkscape:showpageshadow="2"
     inkscape:pageopacity="0.0"
     inkscape:pagecheckerboard="0"
     inkscape:deskcolor="#d1d1d1"
     inkscape:document-units="pt"
     inkscape:zoom="0.86621102"
     inkscape:cx="458.31788"
     inkscape:cy="375.19726"
     inkscape:window-width="1920"
     inkscape:window-height="1123"
     inkscape:window-x="35"
     inkscape:window-y="32"
     inkscape:window-maximized="0"
     inkscape:current-layer="g6" />
  <g
     transform="translate(0.000000,400.000000) scale(0.100000,-0.100000)"
     fill="#000000"
     stroke="none"
     id="g6"
     style="fill:#0e5d83;fill-opacity:1">
    <path
       d="m 2812,3900 c -530,-67 -994,-394 -1227,-865 -36,-71 -76,-166 -91,-209 -176,-537 -60,-1117 311,-1548 l 66,-78 h 1129 1129 l 67,78 c 281,326 423,757 386,1167 -28,297 -108,525 -270,770 -85,127 -281,326 -407,412 -178,121 -395,212 -603,254 -113,22 -379,33 -490,19 z m 550,-543 c 90,-54 121,-154 77,-245 -22.7072,-91.3843 -132.5554,-110.4867 -162.5554,-110.4867 C 3270.5133,3000.5133 3277,3001 3256,2697 l -21,-294 57,-27 c 32,-14 69,-41 83,-59 l 25,-34 302,153 303,152 5,43 c 8,57 24,85 60,104 82,42 170,-14 170,-111 0,-28 -8,-44 -34,-70 -29,-29 -41,-34 -79,-34 -34,0 -53,6 -74,24 l -28,25 -307,-157 c -296,-151 -306,-157 -297,-180 25,-65 2,-171 -46,-222 l -25,-26 150,-164 c 83,-91 156,-164 163,-163 6,1 29,6 50,12 127,31 236,-114 165,-219 -52,-76 -123,-97 -197,-58 -26,14 -51,38 -62,58 -22,41 -24,105 -4,140 8,14 14,29 15,33 0,6 -172,197 -284,315 -21,22 -23,22 -56,6 -79,-40 -184,-25 -254,36 l -31,27 -215,-149 c -118,-81 -243,-168 -277,-193 l -61,-44 15,-43 c 19,-57 10,-116 -27,-167 -43,-58 -99,-84 -171,-79 -108,8 -183,87 -182,193 1,157 183,248 310,156 l 40,-29 269,190 c 148,104 270,191 272,193 2,2 -4,24 -12,49 -21,62 -20,105 4,168 16,42 17,55 7,64 -6,6 -182,158 -389,338 l -378,326 -36,-25 c -101,-69 -234,4 -234,129 0,63 28,108 84,135 54,27 81,26 136,-1 63,-32 97,-100 83,-164 l -10,-44 91,-78 c 527,-453 700,-594 715,-583 31,22 96,42.5133 118,51 15.8608,6.1185 23,7 27,33 7,43 47,570 44,571 -119,47 -171,133 -143,238 14,54 53,103 100,124 49,22 134,18 177,-9 z M 3020,2355 C 0,4000 0,4000 3020,2355 Z"
       id="path1"
       style="fill:#0e5d83;fill-opacity:1"
       sodipodi:nodetypes="cccccccccccccccccccccccccsssccccccccccccscccccccccccccccscsccccsccccccsccccccc" />
    <path
       d="M3955 937 c-3 -6 -4 -188 -3 -402 l3 -390 83 0 84 0 1 145 2 145 52 3 52 3 76 -150 75 -151 96 0 c87 0 96 2 89 18 -3 9 -42 82 -86 161 l-80 143 41 35 c62 53 84 103 84 193 1 62 -4 84 -24 125 -34 66 -97 109 -183 124 -91 16 -356 15 -362 -2z m345 -154 c68 -40 67 -141 -2 -183 -26 -16 -47 -20 -103 -18 l-70 3 -3 94 c-1 52 -1 100 2 108 8 20 140 18 176 -4z"
       id="path6"
       style="fill:#0e5d83;fill-opacity:1" />
  </g>
  <g
     id="g7"
     transform="translate(-0.97209717,-0.48604856)">
    <rect
       style="fill:#1a98c4;stroke-width:0.75;fill-opacity:1"
       id="rect6"
       width="13.123312"
       height="34.509449"
       x="108.87488"
       y="269.27094" />
    <rect
       style="fill:#1a98c4;stroke-width:0.75;fill-opacity:1"
       id="rect6-6"
       width="13.123312"
       height="34.509449"
       x="477.37128"
       y="269.13727" />
    <rect
       style="fill:#1a98c4;stroke-width:0.75;fill-opacity:1"
       id="rect7"
       width="371.82718"
       height="12.151215"
       x="117.62376"
       y="280.45004" />
  </g>
  <text
     xml:space="preserve"
     transform="scale(0.75)"
     id="text7"
     style="font-size:85.3333px;text-align:start;writing-mode:lr-tb;direction:ltr;white-space:pre;shape-inside:url(#rect8);fill:#000000"><tspan
       x="163.96094"
       y="587.47067"
       id="tspan2"><tspan
         dx="0 20.3125 17.59375 19.609375"
         style="font-size:32px"
         id="tspan1">Scan</tspan></tspan></text>
  <text
     xml:space="preserve"
     style="font-size:100px;text-align:start;writing-mode:lr-tb;direction:ltr;text-anchor:start;fill:#1a98c4;stroke-width:4.45;stroke-dasharray:none;fill-opacity:1"
     x="152.61928"
     y="385.43652"
     id="text9"><tspan
       sodipodi:role="line"
       id="tspan9"
       style="font-style:normal;font-variant:normal;font-weight:bold;font-stretch:normal;font-size:100px;font-family:'Adwaita Mono';-inkscape-font-specification:'Adwaita Mono, Bold';font-variant-ligatures:normal;font-variant-caps:normal;font-variant-numeric:normal;font-variant-east-asian:normal;stroke-width:4.45;stroke-dasharray:none;fill:#1a98c4;fill-opacity:1"
       x="152.61928"
       y="385.43652">scan</tspan></text>
</svg>
