<svg xmlns="http://www.w3.org/2000/svg" width="800" height="533.333" viewBox="0 0 600 400"><defs><path id="a" d="M163.96 452.997h357.084v58.974H163.96z"/></defs><path d="M2812 3900c-530-67-994-394-1227-865-36-71-76-166-91-209-176-537-60-1117 311-1548l66-78h2258l67 78c281 326 423 757 386 1167-28 297-108 525-270 770-85 127-281 326-407 412-178 121-395 212-603 254-113 22-379 33-490 19m550-543c90-54 121-154 77-245-22.707-91.384-132.555-110.487-162.555-110.487-5.932-1 .555-.513-20.445-304.513l-21-294 57-27c32-14 69-41 83-59l25-34 302 153 303 152 5 43c8 57 24 85 60 104 82 42 170-14 170-111 0-28-8-44-34-70-29-29-41-34-79-34-34 0-53 6-74 24l-28 25-307-157c-296-151-306-157-297-180 25-65 2-171-46-222l-25-26 150-164c83-91 156-164 163-163 6 1 29 6 50 12 127 31 236-114 165-219-52-76-123-97-197-58-26 14-51 38-62 58-22 41-24 105-4 140 8 14 14 29 15 33 0 6-172 197-284 315-21 22-23 22-56 6-79-40-184-25-254 36l-31 27-215-149c-118-81-243-168-277-193l-61-44 15-43c19-57 10-116-27-167-43-58-99-84-171-79-108 8-183 87-182 193 1 157 183 248 310 156l40-29 269 190c148 104 270 191 272 193s-4 24-12 49c-21 62-20 105 4 168 16 42 17 55 7 64-6 6-182 158-389 338l-378 326-36-25c-101-69-234 4-234 129q0 94.5 84 135c54 27 81 26 136-1 63-32 97-100 83-164l-10-44 91-78c527-453 700-594 715-583 31 22 96 42.513 118 51 15.86 6.119 23 7 27 33 7 43 47 570 44 571-119 47-171 133-143 238 14 54 53 103 100 124 49 22 134 18 177-9m-342-1002q-4530 2467.5 0 0m935-1418c-3-6-4-188-3-402l3-390h167l1 145 2 145 52 3 52 3 76-150 75-151h96c87 0 96 2 89 18-3 9-42 82-86 161l-80 143 41 35c62 53 84 103 84 193 1 62-4 84-24 125-34 66-97 109-183 124-91 16-356 15-362-2m345-154c68-40 67-141-2-183-26-16-47-20-103-18l-70 3-3 94c-1 52-1 100 2 108 8 20 140 18 176-4" style="fill:#0e5d83;fill-opacity:1" transform="matrix(.1 0 0 -.1 0 400)"/><path d="M108.875 269.271h13.123v34.509h-13.123zm368.496-.134h13.123v34.509h-13.123z" style="fill:#1a98c4;stroke-width:.75;fill-opacity:1" transform="translate(-.972 -.486)"/><path d="M117.624 280.45h371.827v12.151H117.624z" style="fill:#1a98c4;stroke-width:.75;fill-opacity:1" transform="translate(-.972 -.486)"/><text xml:space="preserve" style="font-size:85.3333px;text-align:start;writing-mode:lr-tb;direction:ltr;white-space:pre;shape-inside:url(#a);fill:#000" transform="scale(.75)"><tspan x="163.961" y="587.471"><tspan dx="0 20.3125 17.59375 19.609375" style="font-size:32px">Scan</tspan></tspan></text><text xml:space="preserve" x="152.619" y="385.437" style="font-size:100px;text-align:start;writing-mode:lr-tb;direction:ltr;text-anchor:start;fill:#1a98c4;stroke-width:4.45;stroke-dasharray:none;fill-opacity:1"><tspan x="152.619" y="385.437" style="font-style:normal;font-variant:normal;font-weight:700;font-stretch:normal;font-size:100px;font-family:&quot;Adwaita Mono&quot;;-inkscape-font-specification:&quot;Adwaita Mono, Bold&quot;;font-variant-ligatures:normal;font-variant-caps:normal;font-variant-numeric:normal;font-variant-east-asian:normal;stroke-width:4.45;stroke-dasharray:none;fill:#1a98c4;fill-opacity:1">scan</tspan></text></svg>