<svg xmlns="http://www.w3.org/2000/svg" width="411.721" height="132.114" viewBox="0 0 411.721 132.114"><path d="M198.891 121.217c-.22-.572-.43-20.797-.47-44.945l-.07-43.905h4.55c5.02 0 5.358.255 6.049 4.576.223 1.399.724 2.543 1.113 2.543.39 0 2.282-1.379 4.207-3.064 4.88-4.273 9.214-5.763 16.577-5.699 6.642.058 8.892.702 13.258 3.79 6.237 4.411 9.364 12.917 9.43 25.652.087 16.748-5.93 28.265-17.623 33.738-3.758 1.758-5.619 2.184-10.595 2.422-3.723.178-7.495-.061-9.843-.624-2.093-.501-4.112-.922-4.484-.934-.42-.015-.808 5.15-1.017 13.537l-.34 13.56-5.171.196c-4.147.158-5.25-.009-5.57-.843m29.991-35.261c4.484-1.582 7.34-4.215 9.64-8.887 2.8-5.687 3.825-13.18 2.832-20.7-1.496-11.331-6.462-16.744-14.618-15.933-2.153.214-4.77.83-5.813 1.37-2.521 1.304-10.156 9.514-10.625 11.425-.203.83-.284 8.067-.178 16.082l.192 14.571 3.729 1.51c4.414 1.788 10.692 2.026 14.841.562m-209.535 9.44c-7.308-1.631-9.394-2.725-9.346-4.9.058-2.68 1.03-8.236 1.527-8.733.234-.234 2.036.271 4.005 1.122 7.688 3.324 16.394 4.336 22.562 2.624 4.065-1.129 8.231-5.61 8.811-9.476.893-5.953-2.706-10.635-12.712-16.541C15.587 48.509 10.66 42.824 10.646 32.318c-.009-6.897 1.503-10.714 6.05-15.266 5.87-5.876 9.467-7.043 21.742-7.052 8.355-.006 10.568.224 14.746 1.538 2.704.85 4.951 1.917 4.994 2.373.17 1.813-.233 9.673-.521 10.144-.17.277-1.435.011-2.814-.59-8.887-3.874-18.62-4.915-24.384-2.608-5.472 2.19-8.523 8.133-6.94 13.517 1.12 3.805 6.99 9.319 14.963 14.055 15.923 9.458 20.978 15.347 21.132 24.618.108 6.47-1.713 10.828-6.539 15.654-5.835 5.833-9.626 7.202-20.74 7.486-5.754.148-9.923-.106-12.987-.79m69.852.017c-9.274-2.96-16.1-11.535-18.263-22.944-.965-5.086-.756-15.278.405-19.734 2.342-8.991 8.166-16.346 15.764-19.907 3.291-1.543 4.973-1.852 11.128-2.046 8.601-.27 13.571.9 17.146 4.039 2.555 2.243 3.998 5.854 3.631 9.084-.227 1.998-.284 2.024-4.802 2.222l-4.573.2-1.128-2.365c-1.525-3.197-3.784-3.988-10.565-3.7-6.385.273-8.226 1.258-11.555 6.188-3.082 4.563-4.054 9.114-3.781 17.706.22 6.933.427 7.942 2.474 12.102 4.488 9.116 12.527 12.542 22.56 9.613 2.025-.59 5.01-1.842 6.631-2.78s3.197-1.445 3.5-1.128.654 2.388.78 4.603c.224 3.924.17 4.067-2.084 5.6-3.825 2.601-8.666 3.768-16.67 4.017-5.271.164-8.38-.062-10.598-.77m55.879.042c-9.137-2.856-16.16-10.62-18.894-20.886-1.325-4.977-1.251-17.592.13-22.247 2.723-9.177 7.361-14.969 15.02-18.754l5.175-2.557h8.849c8.181 0 9.142.137 12.726 1.817 7.124 3.339 12.566 9.789 15.167 17.974 1.624 5.11 1.987 16.612.698 22.082-2.75 11.671-10.251 19.748-20.996 22.609-4.371 1.164-14.096 1.143-17.875-.038M163.53 85.19c5.473-2.824 9.431-12.18 9.297-21.973-.115-8.443-2.06-14.185-6.211-18.336-3.643-3.643-6.45-4.707-12.43-4.712-8.811-.009-13.661 4.62-16.52 15.77-1.284 5.004-.945 13.11.783 18.735 1.325 4.314 6.712 10.172 10.504 11.421 3.691 1.216 11.393.738 14.577-.905m114.329 10.094c-4.051-1.431-7.78-5.342-9.326-9.78-1.149-3.3-1.268-5.963-1.268-28.389V32.367l5.169-.197c4.89-.186 5.19-.113 5.584 1.356.229.854.422 11.011.429 22.571.008 12.635.298 22.047.729 23.597.394 1.418 1.561 3.525 2.594 4.68 1.569 1.756 2.496 2.154 5.625 2.414 6.167.511 10.7-1.2 14.417-5.44 5.864-6.689 5.795-6.339 5.795-29.194V32.028h5.045c2.774 0 5.194.24 5.376.536.182.294.4 14.405.485 31.357l.154 30.823-3.892.205c-4.613.243-5.671-.442-6.247-4.038-.579-3.622-1.39-3.85-3.706-1.04-1.09 1.322-3.856 3.34-6.148 4.485-3.858 1.929-4.672 2.079-11.007 2.029-4.311-.034-7.939-.441-9.808-1.102m65.004.19c-4.47-1.235-8.037-3.076-8.44-4.354-.391-1.246.546-8.03 1.2-8.685.23-.23 2.694.708 5.476 2.083 8.46 4.18 17.866 4.06 22.211-.285 1.574-1.575 1.927-2.514 1.927-5.135 0-2.836-.3-3.495-2.588-5.67-1.423-1.354-5.596-3.926-9.274-5.715-8.927-4.344-13.9-7.817-16.293-11.38-1.66-2.472-2.019-3.767-2.218-8.032-.204-4.348-.002-5.527 1.39-8.136 2.067-3.875 6.327-7.141 11.139-8.54 5.7-1.657 17.528-1.079 22.93 1.122l4.067 1.657.175 4.067c.264 6.106-.233 6.452-5.463 3.797-5.083-2.58-13.29-3.58-17.63-2.147-3.023.997-5.899 4.27-5.893 6.707.01 4.182 3.133 6.831 14.598 12.384 12.466 6.036 17.395 12.334 16.377 20.925-.802 6.773-5.342 12.272-12.27 14.865-3.094 1.157-5.261 1.426-11.107 1.377-3.995-.033-8.636-.44-10.314-.904zm46.965-66.484c-4.121-1.792-6.184-7.833-4.011-11.749 1.373-2.475 4.532-4.187 7.737-4.192 2.327-.003 3.366.43 5.321 2.222 4.574 4.192 3.468 11.42-2.104 13.748-2.87 1.199-4.13 1.193-6.943-.03m5.524-2.295c.2-.323-.267-1.158-1.038-1.855-1.369-1.24-1.422-1.239-2.335.01-.514.702-.773 1.537-.577 1.855.467.755 3.482.748 3.95-.01m-5.73-5.684-.022-4.237-1.333 1.6c-1.506 1.808-1.616 2.652-.672 5.136 1.156 3.042 2.052 1.94 2.028-2.499zm9.516.192c0-1.544-.462-2.942-1.188-3.599-1.791-1.62-4.544-2.497-5.65-1.798-.708.449-.493.61.822.618 2.528.015 3.55 1.535 3.001 4.462-.287 1.528-.156 2.793.352 3.406 1.254 1.51 2.663-.123 2.663-3.09m-5.425-1.757c0-.582-.31-.866-.689-.631s-.513.71-.299 1.057c.582.94.988.765.988-.426" style="fill:#ff8200;fill-opacity:1;stroke-width:.67800725"/></svg>